<svg id="Layer_1" data-name="Layer 1" xmlns="http://www.w3.org/2000/svg" viewBox="0 0 183.02 145"><defs><style>.cls-1{fill:#fff;}</style></defs><title>Logo2</title><path class="cls-1" d="M63.42,77.84c-6.65-8.1-16.32-12.14-24.56-14.6-2.4-.72-4.66-1.49-6.8-2.35-12.8-5.12-20.85-13.08-20.85-27.81,0-15.19,10.46-25.66,24.42-25.66a33.17,33.17,0,0,1,11,1.69A20.94,20.94,0,0,1,54.49,14q1.14-.09,2.31-.09a37.84,37.84,0,0,1,6.18.47,26.19,26.19,0,0,0-6.11-7C51.37,3,44.13,1,35.87,1,19.68,1,4.24,12.9,4.24,33.34c0,21.92,14.2,30.15,32.14,35.88,19.18,6.22,28.16,15.45,28.16,34.37,0,17.14-10.53,28.67-26.81,29.38-.53,0-1.07,0-1.61,0a35.64,35.64,0,0,1-8-.86c-12.46-2.79-21-12.62-21.59-30.55L0,99.61c0,24.88,12.9,39.28,35.22,39.84.46,0,.93,0,1.41,0A37.32,37.32,0,0,0,47.05,138c14.38-4.2,24.45-17.17,24.45-35.43C71.5,91.63,68.25,83.68,63.42,77.84Z" transform="translate(0 -0.95)"/><path class="cls-1" d="M107.42,18.4h2V49.59l15-16.37h2.33l-15,16.44,16.23,21h-2.4L109.39,49.74V70.62h-2Z" transform="translate(0 -0.95)"/><path class="cls-1" d="M133.52,18.4h2v6.36h-2Zm0,14.82h2v37.4h-2Z" transform="translate(0 -0.95)"/><path class="cls-1" d="M146.08,18.4h2V70.62h-2Z" transform="translate(0 -0.95)"/><path class="cls-1" d="M158.64,18.4h2V70.62h-2Z" transform="translate(0 -0.95)"/><path class="cls-1" d="M60.06,69.71c-16.7-5-27.67-12.95-27.67-30.14,0-14.35,9.33-24.48,22.1-25.57q1.14-.09,2.31-.09a37.84,37.84,0,0,1,6.18.47,26.19,26.19,0,0,0-6.11-7A33.25,33.25,0,0,0,46.63,9.11c-11.82,4-21.22,14.78-21.22,30.7,0,9.13,2.47,15.89,6.65,21.08,5.83,7.26,15,11.46,25.5,14.81q3.11,1,5.86,2.14c15.17,6.18,22.3,15.35,22.3,32.24,0,17.68-11.22,29.4-28.41,29.4A34.91,34.91,0,0,1,47.05,138,25.92,25.92,0,0,1,37.73,133c-.53,0-1.07,0-1.61,0a35.64,35.64,0,0,1-8-.86,28.74,28.74,0,0,0,7.11,7.31c5.87,4.27,13.49,6.5,22.59,6.5,19.68,0,34.88-14.45,34.88-36.87C92.69,82.92,74.26,73.94,60.06,69.71Z" transform="translate(0 -0.95)"/><path class="cls-1" d="M89.2,41.82H82.73l-21.2-6.49c0-10.15-2.67-17-7-21.33q1.14-.09,2.31-.09a37.84,37.84,0,0,1,6.18.47c3.22,5.3,5,12.25,5,20.95l14.68,4.5C82.09,23.23,73.83,16.17,63,14.38a26.19,26.19,0,0,0-6.11-7h.2C75.75,7.42,89.2,18.14,89.2,41.82Z" transform="translate(0 -0.95)"/><path class="cls-1" d="M109.14,76.65h2V91.47c0,2.68,0,5.15-.21,8.19,2.18-6.92,7.48-9.11,12.2-9.11a10.8,10.8,0,0,1,8.4,3.46c2.33,2.61,3,6.28,3,11.93v22.93h-2V106.5c0-5.22-.35-8.47-2.33-11.15s-5.36-3-7-3a10.14,10.14,0,0,0-9,4.3c-2.11,2.9-3.1,6.07-3.1,13.48v18.7h-2Z" transform="translate(0 -0.95)"/><path class="cls-1" d="M144.42,76.65h2V83h-2Zm0,14.82h2v37.4h-2Z" transform="translate(0 -0.95)"/><path class="cls-1" d="M156.63,91.47h2c0,3.81,0,6.49-.14,9.39,2.4-7.62,6.64-10.31,11.51-10.31,8,0,13.05,8.83,13.05,19.69,0,10.66-5.08,19.55-13.05,19.55-5.51,0-9.81-3.95-11.51-10.3.14,2.18.14,4.72.14,9.38v15h-2ZM181,110.1c0-8.61-3.73-17.71-11.21-17.71-3.75,0-6.57,2.26-8.4,5.64a25,25,0,0,0-2.83,12.14,25.4,25.4,0,0,0,2.83,12.14c1.83,3.39,4.65,5.64,8.4,5.64,7.48,0,11.21-9.1,11.21-17.78Z" transform="translate(0 -0.95)"/><path class="cls-1" d="M37.73,133c-.53,0-1.07,0-1.61,0a35.64,35.64,0,0,1-8-.86c-4.53-6.55-6.93-15.33-6.93-26l-14.66-4.5L0,99.61H6.47l21.19,6.48C27.66,118.73,31.44,127.58,37.73,133Z" transform="translate(0 -0.95)"/><path class="cls-1" d="M0,99.61Z" transform="translate(0 -0.95)"/></svg>