<?xml version="1.0" encoding="utf-8"?>
<!-- Generator: Adobe Illustrator 22.1.0, SVG Export Plug-In . SVG Version: 6.00 Build 0)  -->
<svg version="1.1" id="Layer_1" xmlns="http://www.w3.org/2000/svg" xmlns:xlink="http://www.w3.org/1999/xlink" x="0px" y="0px"
	 viewBox="0 0 500 155.7" style="enable-background:new 0 0 500 155.7;" xml:space="preserve">
<style type="text/css">
	.st0{display:none;fill:#E20000;}
	.st1{fill:#FFFFFF;}
</style>
<rect class="st0" width="499.7" height="155.7"/>
<path class="st1" d="M390.2,136.4c-0.1,5.7-0.2,13.6-0.3,19.3h-18l0-62.4c0-16.9-6.4-31-24.1-31c-12.4,0-22,8.7-25.7,19
	c-1,2.9-1.4,6-1.3,9.1v63.2h-18.9V134c-4.3,13.2-17.5,21.7-37.6,21.7c-11.4,0-22-3-29.4-7.3l4.6-14.3c5.7,3.6,15.7,7.5,25.2,7.5
	c13.9,0,20.3-6.8,20.3-15.6c0-9.2-5.5-14-19.4-19.2c-16.5-6-25.4-14.5-27.4-25c0,0,0,0,0,0c-0.2-1.1-0.3-2.3-0.4-3.5v-1.2
	c0-16.8,13.7-30.6,36.2-30.6c8.3-0.1,16.4,1.8,23.8,5.5c0.6,0.3,1.2,0.6,1.8,1l-1,2.9c0,0,0,0,0.1,0l-3.8,11
	c-4.2-2.6-8.7-4.4-13.5-5.4c0.1,0,0.2-0.1,0.3-0.1c-0.1,0-0.2,0.1-0.4,0.1c-2.6-0.5-5.3-0.8-7.9-0.8c-0.1,0-0.2,0-0.2,0
	c-0.1,0-0.1,0-0.2,0c-6.9,0.1-11.8,2.7-14.5,6.6c-1,1.5-1.7,3.1-2.1,4.9c0,0,0,0,0.1,0c-0.2,0.9-0.3,1.9-0.3,2.8
	c0,8.7,6.1,12.5,19.8,17.8c13.9,5.2,22.7,11.8,25.9,21.7V0h18.9v65.2h0.4c3.3-5.6,8-10.2,13.7-13.4c2.5-1.5,5.3-2.7,8.1-3.6
	c0.1,0,0.1,0,0.2,0c3.6-1.1,7.4-1.6,11.2-1.6c8.8,0,16.5,2.7,23.1,8.5c14.6,12.8,12.3,37.3,12.6,54.8
	C390.1,118.7,390.3,127.5,390.2,136.4z"/>
<path class="st1" d="M393.5,7.6c-3.9,0.1-7.5,2.1-9.7,5.4c-3.7,5.5-2.2,13,3.4,16.6c1.8,1.1,3.9,1.7,6,1.6c0.4,0,0.9-0.1,1.3-0.1
	c0,0,0.1,0,0.1,0h0c1.8-0.1,3.6-0.7,5.1-1.6c0,0,0,0,0.1,0c0.1-0.1,0.2-0.1,0.3-0.2c0.1-0.1,0.2-0.1,0.3-0.2
	c0.1-0.1,0.2-0.1,0.3-0.2c0.1-0.1,0.2-0.1,0.3-0.2c0.2-0.1,0.3-0.2,0.5-0.4c0,0,0,0,0,0s0,0,0,0l0.1-0.1c0.1-0.1,0.3-0.3,0.4-0.4
	c0.2-0.2,0.4-0.4,0.6-0.7c0,0,0,0,0,0c0.4-0.4,0.7-0.9,1-1.4c0,0,0,0,0,0c0.3-0.5,0.5-1,0.8-1.5c0,0,0-0.1,0-0.1
	c0.6-1.5,0.9-3.1,0.9-4.7C405.2,12.7,400.6,7.5,393.5,7.6z M387.2,29.6L387.2,29.6C387.2,29.6,387.2,29.6,387.2,29.6
	C387.3,29.6,387.3,29.6,387.2,29.6z"/>
<path class="st1" d="M387.2,29.5C387.2,29.6,387.2,29.6,387.2,29.5C387.3,29.6,387.3,29.6,387.2,29.5L387.2,29.5z"/>
<path class="st1" d="M399.8,29.4c0.1-0.1,0.2-0.1,0.3-0.2C400,29.3,399.9,29.4,399.8,29.4C399.8,29.5,399.8,29.5,399.8,29.4
	C399.8,29.5,399.8,29.4,399.8,29.4z"/>
<path class="st1" d="M499.9,83.1C499.9,83.1,499.8,83.1,499.9,83.1c-0.3-0.6-0.1-0.9,0.1-1.1l-0.1,0c0-0.4,0-0.8,0-1.2
	c0-0.9-0.1-1.9-0.2-2.8c0-0.5-0.1-1.1-0.1-1.6v-0.3c-0.1-0.6-0.1-1.3-0.2-1.9c0-0.3-0.1-0.6-0.1-0.8c0-0.5-0.1-1-0.2-1.5
	c-0.1-0.5-0.2-1-0.3-1.4s-0.2-0.9-0.3-1.3l-0.5-1.9c-0.2-0.8-0.4-1.6-0.6-2.3c0-0.1-0.1-0.3-0.1-0.4c-0.2-0.6-0.4-1.3-0.6-1.9
	c-0.1-0.3-0.2-0.6-0.3-1c-0.2-0.6-0.4-1.2-0.6-1.8c-0.3-0.8-0.6-1.5-1-2.3s-0.7-1.5-1-2.2c-0.3-0.7-0.7-1.4-1.1-2.1
	c-0.1-0.2-0.2-0.4-0.3-0.5c-0.3-0.6-0.7-1.1-1-1.7c-0.3-0.5-0.8-1.2-1.2-1.8c-0.2-0.3-0.4-0.6-0.6-0.9c-0.2-0.3-0.4-0.6-0.7-0.9
	c0-0.1-0.1-0.1-0.1-0.2c0,0,0,0,0-0.1c-0.1-0.1-0.2-0.2-0.3-0.3c-0.3-0.4-0.7-0.9-1-1.3l-0.1-0.2c-0.3-0.3-0.5-0.6-0.8-0.9
	c-0.1-0.1-0.3-0.3-0.4-0.4h0l-0.1-0.1c0,0,0,0,0-0.1c-0.3-0.3-0.6-0.7-0.9-1c-0.3-0.3-0.6-0.6-0.9-0.8l-0.1-0.1
	c-0.1,0-0.1-0.1-0.1-0.1c-0.3-0.3-0.6-0.6-1-0.9c-0.5-0.5-1.1-0.9-1.6-1.3c-0.5-0.4-1.1-0.9-1.7-1.3c-0.6-0.4-1.1-0.8-1.7-1.2
	s-1.2-0.7-1.8-1.1c0,0,0,0-0.1,0c-0.6-0.3-1.2-0.7-1.8-1s-1.2-0.6-1.9-0.9c-0.6-0.3-1.3-0.6-2-0.8c-0.1,0-0.1-0.1-0.2-0.1
	c0,0,0,0-0.1,0c-0.1,0-0.2-0.1-0.3-0.1c-0.6-0.3-1.3-0.4-2-0.6c-0.5-0.1-0.9-0.3-1.4-0.4c-0.7-0.2-1.4-0.4-2.2-0.5
	c-0.7-0.2-1.5-0.3-2.2-0.4c-0.1,0-0.2,0-0.3,0c-0.3-0.1-0.6-0.1-0.9-0.1c-0.3,0-0.5-0.1-0.8-0.1c-1.5-0.2-2.9-0.2-4.4-0.2
	c-12.3,0-22.2,3.9-29.6,10.9c-0.9,0.8-1.7,1.7-2.5,2.6c0,0-0.1,0-0.1-0.1c-1.3,1.5-2.5,3-3.5,4.6v-5.9c0,0,0,0,0,0v0
	c-1.2-0.4-2.4-0.8-3.7-1.2c1.2,0.4,2.4,0.8,3.7,1.2V33.1h-7.5c-1.6-0.2-3.2-0.2-4.9,0H405V39c0,0,0,0,0,0l0,116.7h14.7l0-31.9h0.5
	c6.2,10.4,18.2,16.5,32.2,16.5c15.1,0.2,29.2-7.3,37.6-19.8c0.7-1,1.3-2,1.9-3.1c-1.4-0.7-2.8-1.4-4.2-2.1c-4.1-2-8.3-3.8-12.6-5.3
	c0,0,0,0,0,0c-0.6,1.1-1.3,2.2-2,3.2c-5.4,7.7-13.6,12.2-24.1,12.2c-11.4,0-21.8-6.6-26.5-17.1c-0.5-1.1-0.9-2.1-1.3-3.3v0
	c-0.2-0.6-0.4-1.3-0.6-1.9c-0.6-2.5-0.9-5.1-0.8-7.7V77.3c0.1-2.6,0.5-5.2,1.2-7.7c2-8.5,7.5-15.7,15.1-19.9c0.1,0,0.1,0,0.2,0.1
	c1.4-0.8,2.9-1.4,4.4-1.9c2.9-1,6-1.6,9.1-1.6c13.8,0,23.2,8.4,27.8,20.3c0.7,1.8,1.3,3.7,1.8,5.6l0.1,0.1c1,4.1,1.4,8.4,1.4,12.6
	c0,9.8-2,18.4-5.7,25.1c4.3,1.5,8.5,3.3,12.6,5.3c1.4,0.7,2.8,1.4,4.2,2.1c0.5-0.8,0.9-1.6,1.4-2.5c0-0.1,0.1-0.2,0.1-0.3
	c0.4-0.8,0.8-1.5,1.1-2.3c0.2-0.6,0.5-1.3,0.7-1.8c0.2-0.5,0.4-1.1,0.6-1.5c0.2-0.5,0.3-1,0.5-1.5c0.2-0.5,0.3-1,0.5-1.5
	c0.2-0.7,0.4-1.4,0.6-2.1l0.1-0.3c0-0.1,0.1-0.2,0.1-0.3c0.2-0.8,0.4-1.6,0.6-2.5c0.1-0.3,0.2-0.6,0.2-1c0.1-0.6,0.2-1,0.3-1.8
	c0.2-0.7,0.3-1.4,0.4-2.3s0.2-1.8,0.3-2.7v-0.8c0-0.5,0.1-1.1,0.1-1.6c0.1-1.1,0.2-2.3,0.2-3.5c0-1,0-2,0-3c0-0.3,0-0.6,0-0.9
	C500,83.2,499.9,83.1,499.9,83.1z M499.8,83.1L499.8,83.1L499.8,83.1C499.7,83.1,499.7,83.1,499.8,83.1
	C499.7,83.1,499.7,83.1,499.8,83.1C499.7,83.1,499.7,83.1,499.8,83.1L499.8,83.1C499.8,83.1,499.8,83.1,499.8,83.1z"/>
<path class="st1" d="M419.8,58.9L419.8,58.9c-1.2-0.4-2.4-0.8-3.7-1.2C417.3,58.1,418.6,58.5,419.8,58.9z"/>
<path class="st1" d="M499.7,98.6L499.7,98.6C499.7,98.6,499.7,98.6,499.7,98.6C499.7,98.6,499.7,98.6,499.7,98.6L499.7,98.6z"/>
<path class="st1" d="M499.8,98.6C499.8,98.6,499.8,98.6,499.8,98.6L499.8,98.6C499.7,98.6,499.7,98.6,499.8,98.6z"/>
<path class="st1" d="M144.7,29.7L144.7,29.7l0.2-0.1L144.7,29.7z M144.7,29.7L144.7,29.7l0.2-0.1L144.7,29.7z M144.7,29.7
	L144.7,29.7l0.2-0.1L144.7,29.7z M144.7,29.7L144.7,29.7l0.2-0.1L144.7,29.7z M416.1,57.7c1.2,0.4,2.4,0.8,3.7,1.2v0
	C418.6,58.5,417.3,58.1,416.1,57.7z M140,31.1L140,31.1l-0.3,0h0.6l0.3-0.1L140,31.1z M140,31.1L140,31.1l-0.3,0h0.6l0.3-0.1
	L140,31.1z M140,31.1L140,31.1l-0.3,0h0.6l0.3-0.1L140,31.1z M387.2,29.5L387.2,29.5C387.3,29.6,387.3,29.6,387.2,29.5
	C387.2,29.6,387.2,29.6,387.2,29.5z"/>
<path class="st1" d="M202.3,103.9c-1.5,0.9-2.9,1.8-4.4,2.7C199.4,105.7,200.8,104.8,202.3,103.9v51.9h-18.9V0h18.9V103.9z"/>
<path class="st1" d="M129.5,69.7l-20.9,22.2l20.9,28v30.8l-5.4-7.6h0l-2.4-3.3l-26.1-36.5l-9.7,10.9v41.6H66.9v-21.5
	c-0.8,2.4-1.9,4.6-3.3,6.7c-0.8,1.2-1.7,2.3-2.6,3.3c-6.6,7.2-17.4,11.5-31.7,11.5c-11.4,0-22-3-29.4-7.3l4.6-14.3
	c5.7,3.6,15.7,7.4,25.2,7.4c6,0,10.5-1.3,13.8-3.4c3.5,1.5,7.1,2.9,10.8,4.1c-3.6-1.2-7.2-2.6-10.7-4.1c1.3-0.8,2.4-1.8,3.3-2.9
	c2.1-2.6,3.2-5.9,3.2-9.2c0-9.2-5.5-14-19.4-19.2C11.9,100,3,89.7,3,77.2c0-16.8,13.7-30.6,36.2-30.6c10.6,0,19.8,2.9,25.6,6.4
	L60,66.8c-6.5-4-13.9-6.1-21.5-6.2c-11.2,0-17.3,6.5-17.3,14.3c0,8.7,6.2,12.5,19.8,17.8c13.8,5.2,22.5,11.7,25.9,21.5V0h18.9v96.8
	h0.4c2.6-3.7,6.1-8.3,9.1-11.9l34.2-39.4l0,0L129.5,69.7z"/>
<path class="st1" d="M147.1,19.4c0,2.3-0.6,4.5-1.8,6.5l0,0c-0.2,0.3-0.4,0.5-0.6,0.8v3.1c-1.4,0.4-2.8,0.9-4.1,1.3
	c-0.3,0-0.6,0.1-0.9,0.1h-0.2c-0.2,0-0.4,0-0.5,0h-0.3c-0.2,0-0.3,0-0.5,0c-0.6,0-1-0.1-1.5-0.2c-1.3-0.2-2.5-0.7-3.6-1.4
	c-5.5-3.6-7.1-11.1-3.4-16.6c2.1-3.2,5.6-5.2,9.4-5.4h0.1c1.9,0,3.9,0.5,5.6,1.3v3.2C146.3,14.2,147.1,16.8,147.1,19.4z"/>
<path class="st1" d="M144.7,0l19,0v155.7h-18.9v-20c1.2-0.5,2.5-1.1,3.7-1.7c0.3-0.1,0.5-0.2,0.8-0.4c-0.3,0.1-0.5,0.2-0.8,0.4
	c-1.2,0.6-2.5,1.1-3.7,1.7V29.9h0c0,0,0.1,0,0.1-0.1c0.3-0.1,0.5-0.2,0.8-0.4c0,0,0,0,0,0c2.1-1.2,3.7-3.1,4.6-5.3l-0.4,0.1
	c0,0,0,0,0,0l0.4-0.2c0.6-1.5,0.9-3.1,0.9-4.7c0.1-4.5-2.3-8.6-6.4-10.6l0,0h0V0z"/>
</svg>
