<svg id="Layer_1" data-name="Layer 1" xmlns="http://www.w3.org/2000/svg" viewBox="0 0 183.05 144.95"><title>Logo3</title><path d="M63.42,76.89c-6.65-8.1-16.32-12.14-24.56-14.6-2.4-.72-4.66-1.49-6.8-2.35-12.8-5.12-20.85-13.08-20.85-27.81,0-15.19,10.46-25.66,24.42-25.66a33.15,33.15,0,0,1,11,1.69,20.85,20.85,0,0,1,7.86,4.89Q55.63,13,56.8,13a37.58,37.58,0,0,1,6.18.47,26.07,26.07,0,0,0-6.11-7C51.37,2.05,44.13.05,35.87.05,19.68.05,4.24,12,4.24,32.39c0,21.92,14.2,30.15,32.14,35.88,19.18,6.22,28.16,15.45,28.16,34.37,0,17.14-10.53,28.67-26.81,29.38H36.12a35.32,35.32,0,0,1-8-.86c-12.46-2.79-21-12.62-21.59-30.55L0,98.66c0,24.88,12.9,39.28,35.22,39.84h1.41a37.51,37.51,0,0,0,10.42-1.45c14.38-4.2,24.45-17.17,24.45-35.43C71.5,90.68,68.25,82.73,63.42,76.89Z" transform="translate(0 -0.05)"/><path d="M107.42,17.45h2V48.64l15-16.37h2.33l-15,16.44,16.23,21h-2.4L109.39,48.79V69.67h-2Z" transform="translate(0 -0.05)"/><path d="M133.52,17.45h2v6.36h-2Zm0,14.82h2v37.4h-2Z" transform="translate(0 -0.05)"/><path d="M146.08,17.45h2V69.67h-2Z" transform="translate(0 -0.05)"/><path d="M158.64,17.45h2V69.67h-2Z" transform="translate(0 -0.05)"/><path d="M60.06,68.76c-16.7-5-27.67-13-27.67-30.14,0-14.35,9.33-24.48,22.1-25.57Q55.63,13,56.8,13a37.58,37.58,0,0,1,6.18.47,26.07,26.07,0,0,0-6.11-7A33.34,33.34,0,0,0,46.63,8.16c-11.82,4-21.22,14.78-21.22,30.7,0,9.13,2.47,15.89,6.65,21.08,5.83,7.26,15,11.46,25.5,14.81,2.07.67,4,1.38,5.86,2.14,15.17,6.18,22.3,15.35,22.3,32.24,0,17.68-11.22,29.4-28.41,29.4a35,35,0,0,1-10.26-1.48,25.92,25.92,0,0,1-9.32-5H36.12a35.32,35.32,0,0,1-8-.86,28.73,28.73,0,0,0,7.11,7.31c5.87,4.27,13.49,6.5,22.59,6.5,19.68,0,34.88-14.45,34.88-36.87C92.69,82,74.26,73,60.06,68.76Z" transform="translate(0 -0.05)"/><path d="M89.2,40.87H82.73l-21.2-6.49c0-10.15-2.67-17-7-21.33Q55.67,13,56.84,13a37.58,37.58,0,0,1,6.18.47c3.22,5.3,5,12.25,5,21l14.68,4.5c-.61-16.6-8.87-23.66-19.7-25.45a26.07,26.07,0,0,0-6.11-7h.2C75.75,6.47,89.2,17.19,89.2,40.87Z" transform="translate(0 -0.05)"/><path d="M109.14,75.7h2V90.52c0,2.68,0,5.15-.21,8.19,2.18-6.92,7.48-9.11,12.2-9.11a10.81,10.81,0,0,1,8.4,3.46c2.33,2.61,3,6.28,3,11.93v22.93h-2V105.55c0-5.22-.35-8.47-2.33-11.15s-5.36-3-7-3a10.15,10.15,0,0,0-9,4.3c-2.11,2.9-3.1,6.07-3.1,13.48v18.7h-2Z" transform="translate(0 -0.05)"/><path d="M144.42,75.7h2v6.35h-2Zm0,14.82h2v37.4h-2Z" transform="translate(0 -0.05)"/><path d="M156.63,90.52h2c0,3.81,0,6.49-.14,9.39,2.4-7.62,6.64-10.31,11.51-10.31,8,0,13.05,8.83,13.05,19.69,0,10.66-5.08,19.55-13.05,19.55-5.51,0-9.81-4-11.51-10.3.14,2.18.14,4.72.14,9.38v15h-2ZM181,109.15c0-8.61-3.73-17.71-11.21-17.71-3.75,0-6.57,2.26-8.4,5.64a25,25,0,0,0-2.83,12.14,25.36,25.36,0,0,0,2.83,12.14c1.83,3.39,4.65,5.64,8.4,5.64,7.48,0,11.21-9.1,11.21-17.78Z" transform="translate(0 -0.05)"/><path d="M37.73,132.05H36.12a35.32,35.32,0,0,1-8-.86c-4.53-6.55-6.93-15.33-6.93-26l-14.66-4.5L0,98.66H6.47l21.19,6.48C27.66,117.78,31.44,126.63,37.73,132.05Z" transform="translate(0 -0.05)"/><path d="M0,98.66" transform="translate(0 -0.05)"/></svg>